<?xml version="1.0" encoding="UTF-8" standalone="no"?>
<svg
   viewBox="0 0 512 512"
   style="height: 512px; width: 512px;"
   version="1.1"
   id="svg2"
   sodipodi:docname="gunshot.svg"
   inkscape:version="1.3.2 (091e20ef0f, 2023-11-25)"
   xmlns:inkscape="http://www.inkscape.org/namespaces/inkscape"
   xmlns:sodipodi="http://sodipodi.sourceforge.net/DTD/sodipodi-0.dtd"
   xmlns="http://www.w3.org/2000/svg"
   xmlns:svg="http://www.w3.org/2000/svg">
  <defs
     id="defs2" />
  <sodipodi:namedview
     id="namedview2"
     pagecolor="#ffffff"
     bordercolor="#000000"
     borderopacity="0.25"
     inkscape:showpageshadow="2"
     inkscape:pageopacity="0.0"
     inkscape:pagecheckerboard="0"
     inkscape:deskcolor="#d1d1d1"
     inkscape:zoom="0.37703155"
     inkscape:cx="340.82029"
     inkscape:cy="397.84469"
     inkscape:window-width="1543"
     inkscape:window-height="749"
     inkscape:window-x="50"
     inkscape:window-y="118"
     inkscape:window-maximized="0"
     inkscape:current-layer="svg2" />
  <path
     d="M 0,512 V 0 h 512 v 512 z"
     fill="#000000"
     fill-opacity="1"
     id="path1" />
  <g
     class=""
     transform="rotate(-90,256,256)"
     id="g2">
    <path
       d="m 33.385,18.482 179.818,179.82 c 15.992,-12.5 32.854,-21.332 49.008,-25.884 6.11,-1.722 12.21,-2.827 18.142,-3.232 L 129.646,18.482 H 33.386 Z M 18.1,94.508 v 22.414 l 143.933,143.933 c 2.284,-4.853 4.898,-9.714 7.87,-14.544 L 18.1,94.51 Z m 0,48.844 v 21.718 l 133.513,133.514 c 0.357,-6.05 1.454,-12.282 3.192,-18.527 z m 267.76,44.308 c -5.534,-0.06 -11.76,0.824 -18.58,2.746 -18.187,5.125 -39.366,17.645 -58.06,36.338 -18.693,18.693 -31.214,39.874 -36.34,58.06 -5.124,18.187 -2.865,32.154 4.983,40.003 7.848,7.848 21.816,10.107 40.002,4.982 2.79,-0.787 5.657,-1.767 8.57,-2.897 -4.446,35.305 2.834,81.353 22.27,137.377 7.042,-107.06 40.21,-77.135 84.346,18.867 -25.618,-105.636 50.953,-72.313 151.733,8.195 -82.658,-96.046 -104.87,-162.764 10.524,-134.658 -113.18,-40.95 -130.87,-81.878 -33.092,-84.97 -63.505,-23.373 -114.68,-32.166 -153.004,-27.345 1.2,-3.05 2.23,-6.05 3.054,-8.97 5.124,-18.186 2.867,-32.155 -4.98,-40.003 -4.906,-4.905 -12.203,-7.627 -21.425,-7.727 z m -15.63,20.928 c 7.007,0.084 13.038,2.182 17.358,6.502 7.242,7.242 8.227,19.295 3.96,32.7 -32.244,8.713 -52.945,29.435 -61.653,61.358 -13.234,4.11 -25.11,3.073 -32.274,-4.09 -13.822,-13.824 -4.888,-45.17 19.956,-70.013 17.08,-17.08 37.233,-26.642 52.653,-26.457 z"
       fill="#ffffff"
       fill-opacity="1"
       id="path2" />
  </g>
</svg>
